<svg width="512" height="510" viewBox="0 0 512 510" fill="none" xmlns="http://www.w3.org/2000/svg">
<path d="M396.39 0C460.239 0 512 51.7607 512 115.61V394.03C512 457.88 460.239 509.64 396.39 509.64H115.61C51.7608 509.64 0.000148477 457.88 0 394.03V115.61C0 51.7607 51.7607 0 115.61 0H396.39ZM96.5703 197.54V412.27H166.74V197.54H96.5703ZM204.97 197.54V412.27H272.37V306.41C272.37 279.6 277.76 253.691 312.88 253.69C347.47 253.69 347.96 284.33 347.96 308.14L347.97 412.27H415.43V295.35C415.43 240.05 402.8 197.54 334.49 197.54C301.64 197.54 279.61 214.54 270.6 230.7H269.66V197.54H204.97ZM131.66 97.3701C112.29 97.3701 96.5703 113.08 96.5703 132.45C96.5704 151.81 112.29 167.53 131.66 167.53C151.02 167.53 166.74 151.81 166.74 132.45C166.74 113.08 151.02 97.3702 131.66 97.3701Z" fill="#8abcf1"/>
</svg>
