<svg width="85" height="53" viewBox="0 0 85 53" fill="none" xmlns="http://www.w3.org/2000/svg">
<path fill-rule="evenodd" clip-rule="evenodd" d="M8.27541 0.0748588L76.7246 0.078334C81.2571 0.078334 84.9667 -0.445302 84.9667 3.96647V44.9215C84.9667 49.3271 81.2506 52.944 76.7246 52.944L8.27541 52.9405C3.74284 52.9405 0.0332642 49.3298 0.0332642 44.918V3.963C0.0332642 -0.443784 3.74797 0.0748588 8.27541 0.0748588ZM40.5641 31.9713C39.1346 31.9713 39.1346 29.146 40.5641 29.146H72.7526C74.1824 29.146 74.1824 31.9713 72.7526 31.9713H40.5641ZM40.5647 40.5166C39.134 40.5166 39.1346 37.6919 40.5647 37.6919H72.7526C74.183 37.6919 74.1836 40.5166 72.7526 40.5166H40.5647ZM40.5641 14.9148C39.1346 14.9148 39.134 12.0903 40.5641 12.0903H62.1119C63.5429 12.0903 63.5423 14.9148 62.1119 14.9148H40.5641ZM40.5641 23.4428C39.134 23.4428 39.1346 20.618 40.5641 20.618H72.7138C74.1433 20.618 74.1441 23.4428 72.7138 23.4428H40.5641ZM82.9406 3.96647L2.05938 3.963V44.918C2.05938 48.2438 4.85858 50.9684 8.27541 50.9684L76.7246 50.9719C80.1438 50.9719 82.9406 48.2497 82.9406 44.9215V3.96647Z" fill="#EFD789"/>
<path d="M22.3537 35.9483C18.271 35.9483 2.14963 20.9258 11.0641 18.5C12.9565 17.9851 18.0927 25.7684 22.3537 25.7684C26.6148 25.7684 27.3197 17.9851 29.212 18.5C38.1266 20.9258 26.4365 35.9483 22.3537 35.9483Z" fill="#EFD789"/>
</svg>
