<svg width="75" height="65" viewBox="0 0 75 65" fill="none" xmlns="http://www.w3.org/2000/svg">
<path fill-rule="evenodd" clip-rule="evenodd" d="M18.3457 49.8275C21.7735 45.3281 24.7439 47.4023 28.8924 50.3038C28.9864 50.3664 29.0804 50.4354 29.5378 50.7487C30.9353 51.72 32.4079 50.4228 33.8116 49.182C34.432 48.6368 35.0399 48.0979 35.6853 47.6843L36.6567 49.2134C36.1365 49.5455 35.5788 50.0406 35.0085 50.5419C33.0847 52.2401 31.0731 54.0198 28.5038 52.2401L27.8521 51.7889C24.5371 49.4703 22.1621 47.8097 19.787 50.9304L18.3457 49.8275ZM57.424 2.46132C56.4966 3.4953 55.9764 4.54182 55.7696 5.60714C55.544 6.78526 55.7007 8.01977 56.1206 9.31695L56.5404 10.6079H11.8785L11.7157 56.6769H11.7094C11.7094 58.8263 12.1669 60.3992 13.1131 61.3392C14.0343 62.2541 15.5069 62.6113 17.5687 62.3794L17.6752 62.3732H62.8008L62.9637 8.55243L62.9699 8.50857C63.0827 5.94554 62.5062 4.43529 61.4785 3.59557C60.5197 2.80598 59.0909 2.51772 57.424 2.46132ZM9.90455 10.6079H0.648819L0.686418 9.58642C0.761617 7.51218 1.18148 5.65101 2.09013 4.10943C3.02385 2.52398 4.4589 1.29573 6.55194 0.543745L6.88406 0.481079H59.3479L59.1849 0.64401C60.551 0.850807 61.7605 1.27693 62.7318 2.06652C64.2295 3.28851 65.0755 5.29381 64.9376 8.54616L64.7748 54.2266H71.7808C72.5453 54.2266 71.9124 54.2329 72.138 54.2266C73.1657 54.2204 73.6295 54.2204 74.0556 54.7718C74.3877 55.198 74.3689 55.5802 74.3313 56.2695C74.3188 56.4951 74.3063 56.7771 74.3063 57.2095C74.3063 60.6812 73.1093 62.6614 71.0852 63.6892C69.2993 64.5978 66.9242 64.6667 64.2045 64.3409H17.7191C15.062 64.6229 13.0818 64.0652 11.7282 62.7304C10.3934 61.4019 9.74796 59.3652 9.74796 56.6706H9.7417L9.90455 10.6079ZM53.8333 5.23741C54.015 4.29116 54.3785 3.3637 54.955 2.45505H7.047C5.52422 3.04411 4.47143 3.95276 3.78837 5.11208C3.19932 6.10847 2.86719 7.29912 2.72306 8.6339H53.9022C53.6641 7.48711 53.6202 6.35286 53.8333 5.23741ZM64.7811 56.2069V62.4296C66.9932 62.6677 68.8794 62.605 70.1954 61.9345C71.5364 61.2515 72.3323 59.8164 72.3323 57.2095C72.3323 56.8335 72.3511 56.4701 72.3636 56.1755C72.3761 55.9499 72.6143 56.1254 72.4952 55.975C72.3323 55.7619 72.5015 56.1881 72.1443 56.1943C71.6931 56.1943 72.2759 56.2006 71.7746 56.2006H64.7811V56.2069ZM19.2355 20.4903C18.6903 20.4903 18.2516 20.0516 18.2516 19.5064C18.2516 18.9612 18.6966 18.5226 19.2355 18.5226H47.7234C48.2685 18.5226 48.7072 18.9612 48.7072 19.5064C48.7072 20.0516 48.2623 20.4903 47.7234 20.4903H19.2355ZM19.2355 30.592C18.6903 30.592 18.2454 30.1533 18.2454 29.6081C18.2454 29.0629 18.6903 28.6243 19.2355 28.6243H54.1842C54.7294 28.6243 55.1743 29.0629 55.1743 29.6081C55.1743 30.1533 54.7294 30.592 54.1842 30.592H19.2355ZM19.0726 37.8458C18.5274 37.8458 18.0888 37.4009 18.0888 36.8557C18.0888 36.3105 18.5274 35.8656 19.0726 35.8656H33.5296C34.0748 35.8656 34.5135 36.3105 34.5135 36.8557C34.5135 37.4009 34.0748 37.8458 33.5296 37.8458H19.0726ZM50.4369 35.5084C50.8316 35.4896 51.1387 35.6274 51.452 35.828C51.8468 36.0849 52.2918 36.5737 52.8495 36.887C53.6265 37.3257 55.0679 36.7178 55.801 37.8145C56.2272 38.4537 56.246 38.9487 56.2836 39.4438C56.3149 39.9764 56.4089 40.4652 56.9604 41.1859C57.8628 42.3828 58.0507 43.1787 57.587 44.0058C57.2674 44.5761 56.5969 44.8894 56.4465 45.2404C56.1206 45.9986 56.4778 46.5751 56.0329 47.465C55.7196 48.0791 55.2371 48.4864 54.5979 48.6932C54.0589 48.8687 53.5075 48.6118 53.0751 48.7998C52.3168 49.1194 51.7528 49.8588 51.145 50.0531C50.9131 50.1283 50.675 50.1596 50.4431 50.1596C50.2113 50.1596 49.9731 50.1283 49.7413 50.0531C49.1334 49.8651 48.5757 49.1194 47.8112 48.7998C47.3788 48.618 46.8336 48.8687 46.2884 48.6932C45.6492 48.4864 45.1604 48.0791 44.8533 47.465C44.4084 46.5751 44.7656 46.0049 44.4397 45.2404C44.2831 44.8769 43.6188 44.5636 43.2992 44.0058C42.8292 43.1787 43.0172 42.3828 43.9259 41.1859C44.4711 40.4652 44.5651 39.9702 44.6027 39.4438C44.634 38.9487 44.6591 38.4474 45.0852 37.8145C45.8184 36.7178 47.2597 37.3319 48.0368 36.887C48.5882 36.5737 49.0394 36.0724 49.4342 35.828C49.735 35.6274 50.0421 35.4958 50.4369 35.5084ZM50.4369 38.4474C52.862 38.4474 54.8235 40.4088 54.8235 42.834C54.8235 45.2592 52.862 47.2206 50.4369 47.2206C48.0117 47.2206 46.0502 45.2592 46.0502 42.834C46.0502 40.4088 48.0117 38.4474 50.4369 38.4474Z" fill="#EFD789"/>
</svg>
