<svg width="77" height="63" viewBox="0 0 77 63" fill="none" xmlns="http://www.w3.org/2000/svg">
<path d="M35.6522 31.4969H41.3415C42.1749 31.4969 42.9393 31.8352 43.4844 32.3866C44.0358 32.9379 44.3742 33.6961 44.3742 34.5294V46.5216C44.3742 47.3549 44.0358 48.1131 43.4844 48.6644C42.933 49.2158 42.1749 49.5541 41.3415 49.5541H35.6522C34.8189 49.5541 34.0607 49.2158 33.5093 48.6644C32.9579 48.1131 32.6196 47.3549 32.6196 46.5216V34.5357C32.6196 33.7023 32.9579 32.9379 33.5093 32.3928C34.0607 31.8415 34.8189 31.4969 35.6522 31.4969ZM4.36724 8.74669H24.1044V3.09518C24.1044 2.24306 24.449 1.4724 25.0129 0.908503C25.5706 0.344605 26.3475 0 27.1997 0H49.794C50.6462 0 51.4169 0.344605 51.9808 0.908503C52.5384 1.46614 52.8893 2.24306 52.8893 3.09518V8.75296H72.6265C73.8295 8.75296 74.9198 9.24167 75.7155 10.0374C76.505 10.8269 77 11.9233 77 13.1263V58.6267C77 59.8296 76.5113 60.9198 75.7155 61.7156C74.926 62.505 73.8295 63 72.6265 63H4.36724C3.16421 63 2.07397 62.5113 1.27822 61.7156C0.48873 60.9136 0 59.8234 0 58.6204V13.12C0 11.9171 0.48873 10.8269 1.28448 10.0311C2.07397 9.24167 3.16421 8.74669 4.36724 8.74669ZM49.794 2.71298H27.1997C27.0932 2.71298 26.9992 2.75684 26.9303 2.82576C26.8613 2.89468 26.8175 2.98866 26.8175 3.09518V8.6903H50.1763V3.09518C50.1763 2.98866 50.1324 2.89468 50.0635 2.82576C49.9945 2.75057 49.9006 2.71298 49.794 2.71298ZM2.70681 34.8552C12.6882 37.7248 20.0693 38.9591 30.0569 39.4228V42.1358C20.0755 41.6784 12.6944 40.4754 2.70681 37.6622V58.6141C2.70681 59.0715 2.89478 59.485 3.19554 59.7858C3.4963 60.0865 3.90984 60.2745 4.36724 60.2745H72.6202C73.0776 60.2745 73.4912 60.0865 73.7919 59.7858C74.0927 59.485 74.2807 59.0715 74.2807 58.6141V37.6684C64.3118 40.4754 57.3756 41.6784 47.4131 42.1358V39.4228C57.3819 38.9529 64.3181 37.7185 74.2807 34.8552V13.12C74.2807 12.6627 74.0927 12.2491 73.7919 11.9484C73.4912 11.6476 73.0776 11.4597 72.6202 11.4597H4.36724C3.90984 11.4597 3.4963 11.6476 3.19554 11.9484C2.89478 12.2491 2.70681 12.6627 2.70681 13.12V34.8552ZM41.3415 34.2098H35.6522C35.5645 34.2098 35.483 34.2474 35.4266 34.3038C35.3703 34.3602 35.3327 34.4417 35.3327 34.5294V46.5216C35.3327 46.6093 35.3703 46.6908 35.4266 46.7472C35.483 46.8098 35.5645 46.8412 35.6522 46.8412H41.3415C41.4292 46.8412 41.5107 46.8036 41.5671 46.7472C41.6235 46.6908 41.6611 46.6093 41.6611 46.5216V34.5357C41.6611 34.4479 41.6235 34.3665 41.5671 34.3101C41.5107 34.2474 41.4292 34.2098 41.3415 34.2098Z" fill="#EFD789"/>
</svg>
